<svg width="340" height="37" viewBox="0 0 340 37" fill="none" xmlns="http://www.w3.org/2000/svg">
<g filter="url(#filter0_d_3_286)">
<path d="M56.6506 31.5521V9.07106L57.2884 8.91077L66.582 17.3729L75.7788 8.91077L76.4167 9.07106V31.5521H72.1689V17.7903L66.739 22.8996H66.3549L60.925 17.7903V31.5521H56.6472H56.6506Z" fill="#36B6B4"/>
<path d="M78.5271 31.5521L89.1599 8.91077H89.9246L100.464 31.5521H95.7051L94.0454 27.9121H84.9755L83.3159 31.5521H78.5271ZM86.4783 24.3657H92.5126L89.5105 17.3729L86.4749 24.3657H86.4783Z" fill="#36B6B4"/>
<path d="M100.821 31.5521L107.784 20.3116L100.821 9.13452H105.834L110.242 16.3176L114.68 9.13452H119.469L112.636 20.1847L119.823 31.5521H114.84L110.178 24.0785L105.643 31.5521H100.821Z" fill="#36B6B4"/>
<path d="M122.631 9.13452H126.942V31.5521H122.631V9.13452Z" fill="#36B6B4"/>
<path d="M131.734 31.5521V9.07106L132.372 8.91077L141.666 17.3729L150.863 8.91077L151.5 9.07106V31.5521H147.253V17.7903L141.823 22.8996H141.439L136.009 17.7903V31.5521H131.731H131.734Z" fill="#36B6B4"/>
<path d="M156.292 9.13452H160.604V31.5521H156.292V9.13452Z" fill="#36B6B4"/>
<path d="M178.199 31.5521H165.392V9.13452H169.704V27.9121H178.199V31.5521Z" fill="#36B6B4"/>
<path d="M181.522 9.13452H185.833V31.5521H181.522V9.13452Z" fill="#36B6B4"/>
<path d="M187.94 31.5521L198.573 8.91077H199.341L209.88 31.5521H205.122L203.462 27.9121H194.392L192.732 31.5521H187.944H187.94ZM195.892 24.3657H201.926L198.924 17.3729L195.892 24.3657Z" fill="#36B6B4"/>
<path d="M229.296 9.13454V31.5521H225.048V22.5156L216.426 16.705V31.5555H212.241V9.10782L212.816 8.91748L225.045 17.413V9.14122H229.292L229.296 9.13454Z" fill="#36B6B4"/>
<path d="M244.5 8.68701C251.46 8.68701 256.412 13.9232 256.412 20.3416C256.412 26.76 251.463 31.9962 244.5 31.9962C237.537 31.9962 232.622 26.76 232.622 20.3416C232.622 13.9232 237.477 8.68701 244.5 8.68701ZM244.5 28.0691C248.3 28.0691 251.78 25.1003 251.78 20.3416C251.78 15.5829 248.3 12.5507 244.5 12.5507C240.7 12.5507 237.25 15.5829 237.25 20.3416C237.25 25.1003 240.667 28.0691 244.5 28.0691Z" fill="#36B6B4"/>
<path d="M278.736 23.1234L284.77 31.5521H279.501L274.775 24.6228C273.784 24.7831 272.955 24.8132 271.837 24.7197V31.5521H267.526V9.3249C277.073 7.47151 282.216 10.9211 282.216 16.6382C282.216 19.1295 280.843 21.7776 278.736 23.1201V23.1234ZM271.837 20.856C275.67 21.4003 277.778 19.2898 277.778 16.705C277.778 14.2773 275.831 12.2669 271.837 12.9382V20.8593V20.856Z" fill="#36B6B4"/>
<path d="M289.115 3.00333H294.034V3.54433L290.297 7.47149H287.105L289.118 3L289.115 3.00333ZM287.101 9.13453H291.412V31.5521H287.101V9.13453Z" fill="#36B6B4"/>
<path d="M306.614 8.68701C313.573 8.68701 318.525 13.9232 318.525 20.3416C318.525 26.76 313.576 31.9962 306.614 31.9962C299.651 31.9962 294.735 26.76 294.735 20.3416C294.735 13.9232 299.591 8.68701 306.614 8.68701ZM306.614 28.0691C310.414 28.0691 313.894 25.1003 313.894 20.3416C313.894 15.5829 310.414 12.5507 306.614 12.5507C302.813 12.5507 299.364 15.5829 299.364 20.3416C299.364 25.1003 302.78 28.0691 306.614 28.0691Z" fill="#36B6B4"/>
<path d="M332.962 13.7329C331.619 13.0951 330.09 12.5841 328.49 12.5841C326.51 12.5841 325.361 13.6394 325.361 14.8516C325.361 16.3844 326.894 17.1825 329.065 18.3012C334.11 20.9193 335.196 23.1868 335.132 25.9018C335.035 29.8924 331.873 32.033 327.565 31.9996C324.306 31.9695 321.624 30.9777 320.412 29.9892L322.072 26.5396C323.221 27.1774 325.137 28.1692 327.211 28.1692C329.606 28.1692 330.788 27.114 330.788 25.8383C330.788 24.0183 328.744 23.1234 326.38 21.7175C322.963 19.7071 321.013 17.8838 321.013 14.6279C321.013 11.9463 323.314 8.68701 328.136 8.68701C330.724 8.68701 333.052 9.48513 334.141 10.0295L332.958 13.7329H332.962Z" fill="#36B6B4"/>
<path d="M40.5631 22.6193L45.2544 32H40.4767L34.0953 19.2411L36.7805 19.2627C37.9269 19.2627 38.9162 18.8485 39.7445 18.0221C40.6023 17.1938 41.0165 16.175 41.0165 14.9973C41.0165 13.8195 40.6004 12.8656 39.7445 12.0333C38.9142 11.2069 37.9269 10.7927 36.7805 10.7927H29.8711L27.7374 6.52734H36.7805C39.1027 6.52734 41.1127 7.35372 42.7674 9.00846C44.4221 10.6966 45.2525 12.6732 45.2525 14.9953C45.2525 16.7776 44.7735 18.3715 43.7548 19.8025C42.8852 21.0607 41.8213 22.0029 40.5611 22.6193H40.5631Z" fill="#36B6B4"/>
<path d="M24.7086 6.5293L11.9694 32H16.6843L18.8474 27.7326L20.9497 23.532L24.7106 16.0494L29.4942 25.6716H34.2739L24.7067 6.5293H24.7086ZM35.3103 27.764H21.4855L19.3401 32H37.444L35.3083 27.764H35.3103Z" fill="#36B6B4"/>
<path d="M4.00196 32V6.52734L15.7833 18.3107L13.7733 22.3287L8.20455 16.7776V32H4H4.00196Z" fill="#36B6B4"/>
</g>
<defs>
<filter id="filter0_d_3_286" x="0" y="0" width="339.135" height="37" filterUnits="userSpaceOnUse" color-interpolation-filters="sRGB">
<feFlood flood-opacity="0" result="BackgroundImageFix"/>
<feColorMatrix in="SourceAlpha" type="matrix" values="0 0 0 0 0 0 0 0 0 0 0 0 0 0 0 0 0 0 127 0" result="hardAlpha"/>
<feOffset dy="1"/>
<feGaussianBlur stdDeviation="2"/>
<feComposite in2="hardAlpha" operator="out"/>
<feColorMatrix type="matrix" values="0 0 0 0 0 0 0 0 0 0 0 0 0 0 0 0 0 0 0.5 0"/>
<feBlend mode="normal" in2="BackgroundImageFix" result="effect1_dropShadow_3_286"/>
<feBlend mode="normal" in="SourceGraphic" in2="effect1_dropShadow_3_286" result="shape"/>
</filter>
</defs>
</svg>
