<svg width="332" height="29" viewBox="0 0 332 29" fill="none" xmlns="http://www.w3.org/2000/svg">
<path d="M52.6505 28.5521V6.07106L53.2883 5.91077L62.582 14.3729L71.7788 5.91077L72.4166 6.07106V28.5521H68.1688V14.7903L62.7389 19.8996H62.3549L56.925 14.7903V28.5521H52.6472H52.6505Z" fill="white"/>
<path d="M74.5271 28.5521L85.1599 5.91077H85.9246L96.4638 28.5521H91.7051L90.0454 24.9121H80.9755L79.3159 28.5521H74.5271ZM82.4783 21.3657H88.5126L85.5105 14.3729L82.4749 21.3657H82.4783Z" fill="white"/>
<path d="M96.8211 28.5521L103.784 17.3116L96.8211 6.13455H101.834L106.242 13.3177L110.68 6.13455H115.469L108.636 17.1847L115.822 28.5521H110.84L106.178 21.0785L101.643 28.5521H96.8211Z" fill="white"/>
<path d="M118.631 6.13455H122.942V28.5521H118.631V6.13455Z" fill="white"/>
<path d="M127.734 28.5521V6.07106L128.372 5.91077L137.666 14.3729L146.863 5.91077L147.5 6.07106V28.5521H143.253V14.7903L137.823 19.8996H137.439L132.009 14.7903V28.5521H127.731H127.734Z" fill="white"/>
<path d="M152.292 6.13455H156.604V28.5521H152.292V6.13455Z" fill="white"/>
<path d="M174.199 28.5521H161.392V6.13455H165.704V24.9122H174.199V28.5521Z" fill="white"/>
<path d="M177.522 6.13455H181.833V28.5521H177.522V6.13455Z" fill="white"/>
<path d="M183.94 28.5521L194.573 5.91077H195.341L205.88 28.5521H201.122L199.462 24.9121H190.392L188.732 28.5521H183.944H183.94ZM191.891 21.3657H197.926L194.924 14.3729L191.891 21.3657Z" fill="white"/>
<path d="M225.296 6.13454V28.5521H221.048V19.5156L212.426 13.705V28.5555H208.241V6.10782L208.816 5.91748L221.045 14.413V6.14122H225.292L225.296 6.13454Z" fill="white"/>
<path d="M240.5 5.68704C247.459 5.68704 252.412 10.9233 252.412 17.3417C252.412 23.76 247.463 28.9963 240.5 28.9963C233.537 28.9963 228.622 23.76 228.622 17.3417C228.622 10.9233 233.477 5.68704 240.5 5.68704ZM240.5 25.0691C244.3 25.0691 247.78 22.1003 247.78 17.3417C247.78 12.583 244.3 9.55077 240.5 9.55077C236.7 9.55077 233.25 12.583 233.25 17.3417C233.25 22.1003 236.666 25.0691 240.5 25.0691Z" fill="white"/>
<path d="M274.736 20.1234L280.77 28.5521H275.501L270.775 21.6228C269.784 21.7831 268.955 21.8132 267.837 21.7197V28.5521H263.526V6.3249C273.073 4.47151 278.216 7.92114 278.216 13.6382C278.216 16.1295 276.843 18.7776 274.736 20.1201V20.1234ZM267.837 17.856C271.67 18.4003 273.778 16.2898 273.778 13.705C273.778 11.2773 271.831 9.26693 267.837 9.93815V17.8593V17.856Z" fill="white"/>
<path d="M285.115 0.0033325H290.034V0.544329L286.297 4.47149H283.105L285.118 0L285.115 0.0033325ZM283.101 6.13453H287.412V28.5521H283.101V6.13453Z" fill="white"/>
<path d="M302.614 5.68704C309.573 5.68704 314.525 10.9233 314.525 17.3417C314.525 23.76 309.576 28.9963 302.614 28.9963C295.651 28.9963 290.735 23.76 290.735 17.3417C290.735 10.9233 295.591 5.68704 302.614 5.68704ZM302.614 25.0691C306.414 25.0691 309.893 22.1003 309.893 17.3417C309.893 12.583 306.414 9.55077 302.614 9.55077C298.813 9.55077 295.364 12.583 295.364 17.3417C295.364 22.1003 298.78 25.0691 302.614 25.0691Z" fill="white"/>
<path d="M328.962 10.7329C327.619 10.0951 326.09 9.58415 324.49 9.58415C322.51 9.58415 321.361 10.6394 321.361 11.8516C321.361 13.3844 322.894 14.1825 325.065 15.3013C330.11 17.9194 331.196 20.1868 331.132 22.9018C331.035 26.8924 327.873 29.033 323.565 28.9996C320.306 28.9695 317.624 27.9777 316.412 26.9893L318.072 23.5396C319.221 24.1775 321.137 25.1693 323.211 25.1693C325.606 25.1693 326.788 24.114 326.788 22.8384C326.788 21.0184 324.744 20.1234 322.38 18.7175C318.963 16.7072 317.013 14.8838 317.013 11.6279C317.013 8.94632 319.314 5.68704 324.136 5.68704C326.724 5.68704 329.052 6.48516 330.14 7.02949L328.958 10.7329H328.962Z" fill="white"/>
<path d="M36.5631 19.6193L41.2544 29H36.4767L30.0953 16.2411L32.7805 16.2627C33.9269 16.2627 34.9162 15.8485 35.7445 15.0221C36.6023 14.1938 37.0165 13.175 37.0165 11.9973C37.0165 10.8195 36.6004 9.86557 35.7445 9.0333C34.9142 8.20691 33.9269 7.79274 32.7805 7.79274H25.8711L23.7374 3.52734H32.7805C35.1027 3.52734 37.1127 4.35372 38.7674 6.00846C40.4221 7.69656 41.2525 9.6732 41.2525 11.9953C41.2525 13.7776 40.7735 15.3715 39.7548 16.8025C38.8852 18.0607 37.8213 19.0029 36.5611 19.6193H36.5631Z" fill="white"/>
<path d="M20.7087 3.5293L7.96942 29H12.6843L14.8475 24.7326L16.9497 20.532L20.7107 13.0494L25.4943 22.6716H30.2739L20.7067 3.5293H20.7087ZM31.3104 24.764H17.4856L15.3401 29H33.444L31.3084 24.764H31.3104Z" fill="white"/>
<path d="M0.00196333 29V3.52734L11.7833 15.3107L9.77332 19.3287L4.20455 13.7776V29H0H0.00196333Z" fill="white"/>
</svg>
